<svg version="1.1" id="Layer_1" xmlns="http://www.w3.org/2000/svg" xmlns:xlink="http://www.w3.org/1999/xlink" x="0px" y="0px"
	 width="100%" viewBox="0 0 992 528" enable-background="new 0 0 992 528" xml:space="preserve">
<path fill="#000000" opacity="1.000000" stroke="none" 
	d="
M630.523987,269.232697 
	C630.833984,267.727844 631.052429,266.599487 631.263489,265.509430 
	C630.801880,265.283325 630.509094,265.011353 630.223328,265.018646 
	C622.216675,265.222809 622.259277,265.228363 622.083618,273.382904 
	C621.551208,298.102936 628.000488,320.766998 641.955200,341.240295 
	C642.516785,342.064331 643.043640,342.915253 643.530823,343.784882 
	C643.678223,344.047913 643.637573,344.416260 643.694336,344.815826 
	C641.729736,345.710510 641.012268,343.990601 640.185913,342.972168 
	C622.497009,321.171234 612.442383,296.523468 612.723755,268.149963 
	C612.769958,263.485443 611.843750,259.902069 608.501648,256.104767 
	C594.837708,240.579697 604.294739,212.892334 624.414124,208.685379 
	C627.240906,208.094269 629.075012,206.800903 630.698181,204.391663 
	C656.539246,166.034149 692.925842,147.797684 738.862183,149.013504 
	C745.490356,149.188934 750.249512,147.562775 755.197510,143.954575 
	C761.767944,139.163239 768.313599,134.343643 774.578247,128.875534 
	C777.040100,131.425705 776.807373,134.463272 777.789246,137.009537 
	C780.544373,144.154816 783.068054,151.390564 785.890381,158.508438 
	C790.196594,169.368423 791.557495,180.069565 784.246155,191.206833 
	C793.190308,193.105743 800.176270,197.204163 803.113647,205.940704 
	C805.081726,211.794373 805.103699,217.764175 802.898926,223.561172 
	C798.820068,234.285492 786.860779,241.031006 776.598511,238.550934 
	C775.723816,236.733795 777.432495,235.469604 777.629761,233.863937 
	C778.010010,230.768921 776.835266,228.544510 773.932251,227.588867 
	C771.339050,226.735229 768.730530,227.209808 767.508240,229.920273 
	C764.349976,236.923645 762.828369,244.478317 760.558472,251.781799 
	C759.989380,253.612732 761.432983,254.438431 762.988892,254.933731 
	C770.887390,257.448029 778.783325,259.970612 787.317444,262.693665 
	C789.826965,244.465698 799.409912,235.335617 818.769592,238.425232 
	C818.429016,211.759262 812.169312,187.830383 794.900024,167.325058 
	C800.305603,169.755600 804.193909,173.774292 807.506226,178.189636 
	C819.581787,194.286133 826.202698,212.526688 828.430237,232.486786 
	C829.134399,238.796143 829.190308,245.092728 833.346436,250.880798 
	C837.881287,257.196289 836.926270,264.742401 833.894714,271.615326 
	C834.491455,271.992767 834.631775,272.160126 834.762634,272.153107 
	C844.723877,271.617279 844.683167,271.616028 844.719238,261.414307 
	C844.804688,237.248810 838.254883,215.098038 824.732910,195.030304 
	C824.058594,194.029587 822.646606,193.203156 823.435059,191.591888 
	C824.925598,191.209167 825.521912,192.356400 826.224670,193.195953 
	C841.714478,211.701843 851.155823,232.787659 853.386292,256.947174 
	C853.630615,259.593597 854.270386,262.242706 854.184692,264.872894 
	C853.949646,272.087677 854.828918,278.362122 859.639038,284.717285 
	C868.753540,296.759369 861.994629,324.799988 841.300232,328.366455 
	C838.771729,328.802185 837.168823,330.100677 835.814697,332.193542 
	C816.555176,361.960602 789.183716,379.530426 754.512207,386.006744 
	C744.123840,387.947205 733.603638,387.494659 723.120911,387.224060 
	C720.286377,387.150879 717.973267,387.808777 715.687134,389.420288 
	C707.276184,395.349396 698.862915,401.271271 691.022461,407.990570 
	C688.671753,406.139618 688.951721,403.589325 688.178162,401.498688 
	C685.521484,394.318054 683.240479,386.980530 680.237915,379.949799 
	C675.340515,368.482025 673.934082,357.255371 681.068665,346.173737 
	C664.084656,339.898254 657.510376,328.841492 662.148621,314.824036 
	C665.964294,303.292603 679.064819,295.543549 689.496338,298.662537 
	C690.099976,300.170776 688.694214,301.083344 688.385193,302.325317 
	C687.612549,305.431366 688.059204,308.077148 691.387207,309.290161 
	C694.481445,310.417938 697.392944,309.510132 698.480347,306.464111 
	C700.938110,299.578827 702.883667,292.510742 705.037170,285.516907 
	C705.630981,283.588257 704.534973,282.758514 702.922668,282.253693 
	C695.001831,279.773590 687.082092,277.289978 678.450378,274.584595 
	C675.942139,292.265717 666.453674,301.154816 647.841187,298.893646 
	C648.438599,324.972504 654.497192,348.719238 672.424866,368.902527 
	C669.374817,369.701996 668.320557,367.700500 667.048889,366.512695 
	C651.831116,352.298370 644.008972,334.164276 639.694824,314.254883 
	C638.499817,308.740265 637.464172,303.150177 637.648560,297.449097 
	C637.729126,294.958710 636.773926,293.011200 635.188904,291.129517 
	C629.870544,284.815643 628.446167,277.572357 630.523987,269.232697 
M772.710327,151.777222 
	C771.864746,149.861282 771.019226,147.945343 770.062073,145.776535 
	C764.583313,149.571243 759.455261,152.968689 754.492249,156.592056 
	C743.625793,164.525360 739.319397,174.804733 743.653015,188.018021 
	C744.078552,189.315628 744.593994,190.770859 743.229187,191.652039 
	C741.495789,192.771164 740.482178,191.222977 739.538147,190.114120 
	C736.144348,186.127533 731.758911,183.893417 726.722046,182.901184 
	C720.565369,181.688416 715.439697,183.769608 711.762207,188.669159 
	C707.831604,193.905899 707.022034,199.738037 709.750671,206.286179 
	C710.673523,205.670517 711.202148,205.337479 711.710388,204.975845 
	C717.498230,200.857834 722.628845,200.710617 728.383179,204.503616 
	C733.082825,207.601379 735.160461,213.058838 733.507629,219.461868 
	C731.554810,227.027084 729.379211,234.547501 726.951660,241.973389 
	C725.073181,247.719223 720.288818,250.413910 714.838623,248.817459 
	C703.818481,245.589493 692.883545,242.070663 681.920776,238.648239 
	C680.825745,238.306381 679.638123,238.004898 678.996521,236.228409 
	C680.481567,234.262070 682.333252,232.167953 683.781433,229.824493 
	C687.866577,223.213806 687.721680,215.483490 683.617798,210.650238 
	C679.152405,205.391251 671.210266,203.108368 665.066528,205.317932 
	C658.218506,207.780777 654.324280,213.679169 654.392212,221.699554 
	C654.407532,223.512421 654.803223,225.322662 655.033142,227.132919 
	C655.200378,228.449738 655.613464,229.967514 654.185791,230.732773 
	C652.327698,231.728821 651.570374,230.052475 650.674133,228.890686 
	C649.759155,227.704498 648.938721,226.423981 647.897766,225.359970 
	C642.555420,219.899216 636.541565,215.832092 628.414734,217.904465 
	C617.493286,220.689545 610.759583,232.686478 613.626648,243.819565 
	C616.262329,254.053864 626.118408,259.301239 637.652588,257.066406 
	C640.597839,256.495758 643.303711,254.066849 647.539673,255.711716 
	C640.318542,264.837891 632.708557,274.143951 643.613892,284.980927 
	C648.309631,289.647186 654.483826,291.366150 660.675659,288.492279 
	C670.913879,283.740326 671.598145,274.523163 670.057922,265.133270 
	C671.988464,263.719299 673.449707,264.502014 674.814758,264.920227 
	C685.159363,268.089752 695.504700,271.260712 705.803589,274.574677 
	C711.982849,276.563049 714.650574,280.712402 713.045776,286.793213 
	C710.882812,294.989288 708.417419,303.137268 705.501831,311.093323 
	C702.997803,317.926086 696.073486,320.690491 689.083130,318.558502 
	C683.451111,316.840759 680.470947,312.797363 679.221558,307.197693 
	C669.597473,313.635437 668.141296,325.662384 675.666199,333.175598 
	C680.877991,338.379242 687.269714,338.334473 693.874084,337.535034 
	C695.568726,337.329926 697.682373,335.803436 698.659180,338.281036 
	C699.440369,340.262451 697.328369,341.084625 696.098206,342.075623 
	C691.126587,346.080658 687.301819,350.990479 686.494324,357.372955 
	C684.953857,369.549042 690.941467,379.809387 695.338623,391.333038 
	C701.357788,387.179413 706.760376,383.640198 711.953186,379.816254 
	C717.451172,375.767639 721.335205,370.574127 723.232300,363.804413 
	C725.020142,357.424225 721.639771,351.341705 722.133423,343.444000 
	C727.408752,348.391785 731.437134,352.572571 737.327393,353.979645 
	C743.660034,355.492462 748.921204,353.880554 753.150635,349.190460 
	C758.244385,343.541840 758.957092,336.467529 755.327148,331.145660 
	C747.826843,336.172363 742.647034,336.558624 737.014404,332.511353 
	C731.626465,328.639862 730.261475,322.867676 732.829407,314.499054 
	C734.782349,308.134338 736.737549,301.768829 738.813660,295.443634 
	C740.954224,288.922211 745.423218,286.630890 752.025696,288.614441 
	C762.227234,291.679230 772.415710,294.788544 782.589844,297.943146 
	C784.118774,298.417206 785.934937,298.628387 786.677490,300.668823 
	C786.111694,303.164825 783.636047,304.375549 782.284607,306.428375 
	C777.539246,313.636108 778.092651,322.686859 783.775818,327.909424 
	C790.201782,333.814636 799.050903,334.133698 805.633789,328.753571 
	C810.599243,324.695312 811.131958,319.212769 810.924805,313.355286 
	C810.838379,310.910309 809.482788,308.152740 811.755127,305.998810 
	C812.344116,306.105072 812.793396,306.048279 812.961609,306.239166 
	C813.939392,307.348907 814.891846,308.486328 815.778503,309.670105 
	C821.373169,317.139465 830.330627,321.084412 837.384949,319.159271 
	C848.514709,316.121857 855.375671,304.072083 852.064636,293.377563 
	C848.501221,281.867828 837.589478,276.789703 825.143066,280.795227 
	C823.220886,281.413879 821.366333,283.272003 819.142334,281.450439 
	C818.403442,278.926422 820.568787,277.925385 821.714111,276.421692 
	C825.180420,271.871094 828.672119,267.285950 827.199280,261.038727 
	C825.199463,252.556305 817.101196,246.519501 809.253845,247.492676 
	C800.905334,248.528015 795.536865,254.956970 795.092407,264.190582 
	C794.958862,266.965820 796.178711,269.783295 794.970459,272.465881 
	C794.534180,272.639648 794.179504,272.930725 793.932861,272.857605 
	C781.816528,269.264221 769.621948,265.899963 757.647705,261.880127 
	C753.330017,260.430664 751.277100,256.096069 752.327637,251.644974 
	C754.426880,242.750443 756.646484,233.818695 760.388000,225.439819 
	C763.199280,219.144318 769.591064,216.711304 776.274536,218.520630 
	C782.091431,220.095337 784.996948,224.183945 786.336365,230.044998 
	C791.505249,226.980164 794.065857,222.634369 794.598633,217.294327 
	C795.811340,205.140671 785.936523,197.273087 772.482971,199.420181 
	C770.753113,199.696243 769.018005,200.948318 767.180786,199.447433 
	C766.192566,196.398941 768.974792,195.485199 770.540771,194.060150 
	C777.902893,187.360321 781.224060,179.471207 778.810547,169.436020 
	C777.400208,163.572250 775.339905,157.982285 772.710327,151.777222 
M714.232117,217.952606 
	C713.525269,220.131012 712.261230,219.072495 711.127380,218.455902 
	C703.931396,214.542648 698.082153,203.539444 699.015808,195.709732 
	C700.336609,184.634186 707.176147,176.359894 716.550110,173.603317 
	C722.348083,171.898346 727.627380,173.896332 733.534546,175.144913 
	C733.155334,167.722900 736.003967,161.658325 740.386658,155.058075 
	C714.571289,161.377869 696.237488,176.210358 680.799805,196.580566 
	C687.938843,200.230103 692.744507,204.981537 694.728516,212.236404 
	C696.733215,219.566681 693.818359,226.184921 691.445679,233.181442 
	C699.738342,235.709061 707.357727,238.021545 714.969910,240.357056 
	C717.643005,241.177185 719.029297,240.016464 719.778076,237.514893 
	C721.494812,231.779297 723.349121,226.084564 725.036865,220.340729 
	C726.381958,215.763031 724.958374,212.297089 721.267273,211.509567 
	C716.733093,210.542206 714.927063,213.275497 714.232117,217.952606 
M753.565857,318.097382 
	C764.619507,324.949646 769.252502,337.206879 765.094177,348.597168 
	C760.452576,361.311005 751.283325,365.217407 732.513306,362.320435 
	C732.028259,368.634521 730.319580,374.600281 726.436035,380.053833 
	C742.767395,380.594238 775.842407,357.551178 784.312317,340.529694 
	C768.687317,332.117676 767.407104,319.430267 774.690552,304.212952 
	C766.016724,301.513092 757.957703,298.980591 749.878784,296.513153 
	C748.500977,296.092346 746.994568,296.367737 746.485840,297.838562 
	C743.938171,305.203369 740.950378,312.482056 740.268494,320.330475 
	C740.004333,323.371429 741.904907,325.377289 745.010132,325.728424 
	C748.128601,326.081055 749.949280,324.487274 750.872253,321.506561 
	C751.273254,320.211609 749.948608,317.754974 753.565857,318.097382 
M761.170593,377.127014 
	C788.600403,368.361053 810.191040,352.124268 825.703064,327.708527 
	C823.252258,325.478546 821.255798,324.087769 819.069275,323.137024 
	C818.775818,323.300385 818.580750,323.342834 818.510376,323.460052 
	C818.256897,323.882416 817.960754,324.306274 817.830444,324.771515 
	C815.111755,334.477722 809.031616,340.583923 798.954163,342.373291 
	C797.505066,342.630585 796.600464,343.483002 795.777161,344.567841 
	C785.352539,358.304230 772.593933,369.397552 757.802917,378.298645 
	C758.725708,378.005432 759.648438,377.712189 761.170593,377.127014 
M672.840149,189.385269 
	C682.254150,177.596054 693.687561,168.050415 706.160095,159.639847 
	C677.844360,167.983795 656.187988,184.867599 640.237183,209.932999 
	C642.770081,211.618103 644.773315,212.950806 647.113831,214.507935 
	C647.827454,212.425278 648.345398,210.883057 648.883606,209.347916 
	C651.512146,201.849747 656.821777,196.966583 664.378113,195.168945 
	C667.956665,194.317612 670.376404,192.699921 672.840149,189.385269 
z"/>
<path fill="#000000" opacity="1.000000" stroke="none" 
	d="
M522.012207,279.104065 
	C510.660614,278.298157 500.449707,275.606415 492.807922,267.162750 
	C483.945923,257.370911 481.227142,245.945343 485.397980,233.326309 
	C489.691101,220.337219 499.084442,212.597031 512.247925,209.831451 
	C527.311401,206.666656 541.324402,209.216187 552.212524,220.829300 
	C561.339539,230.564087 564.062012,242.413925 559.384521,255.104828 
	C554.387085,268.663940 543.903870,275.892365 529.893250,278.276428 
	C527.438599,278.694122 524.936829,278.835327 522.012207,279.104065 
M519.878052,263.677032 
	C521.705811,263.671600 523.541809,263.776917 525.359924,263.641876 
	C534.098511,262.992737 541.410278,256.457611 542.635010,248.279831 
	C545.171082,231.346146 531.739563,219.873764 515.314209,224.944107 
	C506.150543,227.772858 501.733307,234.799789 502.199402,245.807083 
	C502.615234,255.625961 508.027802,261.365692 519.878052,263.677032 
z"/>
<path fill="#000000" opacity="1.000000" stroke="none" 
	d="
M290.612000,246.999878 
	C290.611328,236.009094 290.759705,225.515182 290.537354,215.029129 
	C290.448853,210.854233 291.969391,209.521957 296.041199,209.633423 
	C304.693909,209.870346 313.363159,209.517349 322.014984,209.770126 
	C336.778625,210.201477 346.607208,223.052826 342.206390,235.742966 
	C340.643188,240.250671 336.960785,242.873611 333.414948,246.052979 
	C341.347595,255.285233 344.462036,266.751892 350.707092,278.197479 
	C343.689301,278.197479 338.118286,278.253723 332.549377,278.170135 
	C330.279053,278.136078 329.759857,276.085571 328.935883,274.488464 
	C325.886353,268.577484 324.221405,262.020294 320.480225,256.428497 
	C318.665710,253.716446 316.592621,251.492523 313.066345,251.097794 
	C309.739441,250.725372 308.035278,251.796768 308.108917,255.405914 
	C308.231201,261.398041 308.018555,267.397980 308.188019,273.387787 
	C308.291626,277.048553 306.840515,278.291565 303.195343,278.366669 
	C290.613129,278.625824 290.618011,278.739075 290.622467,266.483154 
	C290.624756,260.155396 290.616058,253.827637 290.612000,246.999878 
M324.082184,233.404907 
	C325.108185,230.559845 325.239319,227.728271 322.822174,225.577560 
	C319.043884,222.215729 314.215881,222.622589 310.010803,223.698822 
	C306.485992,224.600952 308.674072,228.592941 308.202362,231.175278 
	C307.968506,232.455505 308.177521,233.825821 308.255676,235.151260 
	C308.332367,236.451935 308.970123,237.467499 310.339020,237.521027 
	C315.123993,237.708130 320.082153,238.439789 324.082184,233.404907 
z"/>
<path fill="#000000" opacity="1.000000" stroke="none" 
	d="
M247.598251,217.457947 
	C256.534088,237.513702 265.313599,257.221344 274.421570,277.666351 
	C267.968018,278.737274 262.366180,278.636780 256.885437,277.958954 
	C253.879684,277.587250 253.467361,273.981293 252.762756,271.618774 
	C251.147552,266.202881 247.941086,264.441956 242.430435,264.907562 
	C236.644638,265.396362 230.783600,265.151672 224.961792,264.993652 
	C221.851456,264.909210 220.196014,266.015564 219.031143,269.008942 
	C214.846420,279.762421 217.789825,278.177246 205.393326,278.281860 
	C202.931625,278.302612 200.414017,278.696381 197.977798,277.823242 
	C196.725922,275.876465 198.003784,274.274261 198.649719,272.672729 
	C206.428009,253.387314 214.330948,234.151566 221.984238,214.816910 
	C223.493988,211.002762 225.516083,209.118851 229.725174,209.657074 
	C232.018173,209.950272 234.431427,210.022171 236.700134,209.647293 
	C242.828705,208.634583 246.102509,211.397934 247.598251,217.457947 
M242.613815,247.695541 
	C240.070190,241.546722 237.526581,235.397903 234.461227,227.987885 
	C231.218674,236.613876 228.522263,243.787033 225.549026,251.696594 
	C229.934723,251.696594 233.387863,251.699249 236.841003,251.695267 
	C238.167236,251.693726 239.493484,251.682373 240.819626,251.666092 
	C243.213150,251.636703 243.630966,250.388763 242.613815,247.695541 
z"/>
<path fill="#000000" opacity="1.000000" stroke="none" 
	d="
M136.672684,273.850159 
	C136.665665,254.041595 136.767578,234.715973 136.585159,215.393005 
	C136.544922,211.130249 137.687531,209.439545 142.201385,209.607056 
	C150.685944,209.921890 159.191620,209.609802 167.686310,209.723068 
	C180.516556,209.894135 190.012344,218.926529 189.845352,230.637558 
	C189.677505,242.409439 180.656036,250.930435 167.947250,251.271530 
	C164.784103,251.356430 161.616058,251.367996 158.452606,251.301788 
	C155.459961,251.239166 154.315094,252.640472 154.360840,255.574249 
	C154.456924,261.736420 154.309921,267.902283 154.392761,274.064880 
	C154.431000,276.908539 153.520584,278.461456 150.397797,278.331818 
	C147.071579,278.193787 143.733673,278.215149 140.404617,278.305481 
	C137.566788,278.382477 136.490494,276.999542 136.672684,273.850159 
M160.484756,223.294281 
	C155.673615,222.606155 153.756882,224.712540 154.356277,229.469696 
	C154.561935,231.101959 154.382736,232.781158 154.405853,234.438538 
	C154.422333,235.619080 154.547256,236.723267 155.790848,237.386154 
	C157.986298,238.556427 167.310196,237.439713 169.243088,235.716263 
	C172.743729,232.594894 172.157562,227.064194 168.059677,224.733673 
	C165.979736,223.550812 163.703796,223.208817 160.484756,223.294281 
z"/>
<path fill="#000000" opacity="1.000000" stroke="none" 
	d="
M517.972778,346.107452 
	C518.984436,339.941437 519.847412,334.193115 519.718933,328.340729 
	C519.671692,326.187286 519.528564,323.775757 522.162598,322.885498 
	C525.479187,321.764557 528.986023,320.648834 532.360596,322.117706 
	C534.326904,322.973602 533.876953,325.207062 533.387695,327.041901 
	C530.383911,338.306976 528.614868,349.810089 526.740906,361.295288 
	C526.090759,365.279877 526.325928,369.269348 526.388000,373.259918 
	C526.421570,375.418182 527.388000,377.183655 529.405334,378.061615 
	C531.463318,378.957245 532.873108,377.468719 534.244812,376.295013 
	C536.204102,374.618591 537.194336,372.344727 538.070129,369.960785 
	C538.729553,368.165649 539.879639,366.519012 542.184937,367.593597 
	C544.182678,368.524811 544.330444,370.247742 543.814453,372.269440 
	C541.809631,380.124725 530.344727,387.810547 522.440308,386.416870 
	C518.228455,385.674225 516.329590,382.657288 515.711609,378.755249 
	C515.377319,376.644196 515.443176,374.469727 515.276917,371.359619 
	C513.316650,373.370850 511.891022,374.796753 510.506592,376.261566 
	C507.635712,379.299133 504.662659,382.226593 500.909363,384.169342 
	C495.146027,387.152466 489.404236,387.392548 483.918945,383.529907 
	C478.335236,379.598022 476.808899,373.850800 478.130951,367.610443 
	C480.093719,358.345917 482.647186,349.204681 485.038177,340.034149 
	C485.552734,338.060547 485.882202,336.104218 485.559662,334.115509 
	C485.210449,331.962097 483.915375,330.478943 481.741852,329.973694 
	C479.477600,329.447418 477.872864,330.526123 476.713623,332.361542 
	C476.183014,333.201691 475.856995,334.170807 475.329315,335.013184 
	C474.377441,336.532684 472.942261,336.830200 471.425690,336.075775 
	C469.845764,335.289825 469.608459,333.858490 470.011414,332.229065 
	C471.463013,326.359100 481.790039,320.398163 488.200226,321.750244 
	C494.095947,322.993835 498.464355,330.242188 496.983673,337.142334 
	C495.449310,344.292633 493.420074,351.337799 491.562958,358.417297 
	C490.714050,361.653259 490.131104,364.910736 490.148682,368.269623 
	C490.184814,375.181854 495.314850,378.491760 501.642731,375.572632 
	C505.722168,373.690765 508.549622,370.401428 510.846191,366.662018 
	C514.648621,360.470703 516.781067,353.675140 517.972778,346.107452 
z"/>
<path fill="#000000" opacity="1.000000" stroke="none" 
	d="
M417.903992,223.263550 
	C413.756195,223.262268 410.082825,223.456284 406.440247,223.204666 
	C402.343689,222.921722 400.879456,224.441162 400.936981,228.622162 
	C401.131409,242.759415 401.016083,256.901184 400.990784,271.041168 
	C400.977753,278.308380 400.949677,278.381348 393.860931,278.298340 
	C381.711090,278.156128 382.905457,280.082886 382.880066,267.504395 
	C382.854218,254.695236 382.703278,241.882385 382.968994,229.078674 
	C383.065765,224.415512 381.442657,222.879547 376.918335,223.198441 
	C372.450043,223.513397 367.936646,223.123169 363.450104,223.265594 
	C360.091431,223.372208 358.426575,222.148712 358.708038,218.640259 
	C358.827393,217.152878 358.804382,215.642151 358.704346,214.151535 
	C358.492218,210.990814 359.833160,209.664688 363.063812,209.676865 
	C382.360504,209.749603 401.657623,209.737625 420.954437,209.689697 
	C423.849579,209.682510 425.352386,210.776291 425.203003,213.782074 
	C425.161835,214.611450 425.211517,215.445175 425.213989,216.276917 
	C425.234344,223.162247 425.233948,223.162247 417.903992,223.263550 
z"/>
<path fill="#000000" opacity="1.000000" stroke="none" 
	d="
M412.860657,332.955872 
	C419.399811,324.017395 428.137299,320.428101 438.608093,320.707764 
	C445.936615,320.903473 451.238129,324.372833 454.304291,331.099976 
	C461.023804,345.842255 455.299866,371.070496 442.589081,381.017090 
	C434.448730,387.387238 424.996216,389.656250 415.443390,384.971771 
	C406.447845,380.560608 403.226715,372.076416 403.749542,362.428253 
	C404.312561,352.039062 406.451172,341.989380 412.860657,332.955872 
M439.233887,330.207794 
	C432.781311,325.629425 426.150421,326.198120 422.594330,332.689941 
	C415.553925,345.542419 413.850708,359.477448 417.526642,373.644135 
	C419.549255,381.439117 430.837067,383.311523 436.209595,377.268188 
	C445.806702,366.472778 447.595520,342.898895 439.233887,330.207794 
z"/>
<path fill="#000000" opacity="1.000000" stroke="none" 
	d="
M571.459717,387.047363 
	C561.336975,385.020782 559.477417,377.564850 560.159607,366.868713 
	C560.887817,355.452179 562.747314,344.101196 564.312073,332.749023 
	C564.740479,329.641113 563.761536,328.332611 560.736389,328.305573 
	C559.404358,328.293671 558.069519,328.247284 556.742249,328.139465 
	C554.808472,327.982391 552.873901,327.524902 553.011169,325.085144 
	C553.140625,322.784027 554.141174,321.053833 556.871765,320.676147 
	C559.697693,320.285309 563.167480,322.339508 565.257568,319.254547 
	C566.967285,316.731049 566.468689,313.461914 566.998291,310.531464 
	C567.447937,308.043579 567.803711,305.647034 567.119812,303.133820 
	C566.493408,300.832245 566.077698,298.250885 568.731628,296.967407 
	C572.126221,295.325653 575.493591,292.942871 579.493530,293.735687 
	C581.615723,294.156342 581.033752,296.238739 580.719849,297.936310 
	C579.482605,304.628967 578.549744,311.386078 577.070496,318.022675 
	C576.199890,321.928741 577.782532,322.802948 581.120850,322.695465 
	C584.116882,322.598999 587.117126,322.621490 590.115540,322.619537 
	C591.967224,322.618317 594.635498,321.570984 594.509521,324.847900 
	C594.413452,327.348755 593.582642,329.980896 590.412476,330.275391 
	C587.257935,330.568390 584.119690,330.243011 580.995667,329.526093 
	C577.507812,328.725677 575.244812,329.793915 574.901367,333.849945 
	C573.949280,345.093933 571.428223,356.171844 571.330566,367.513367 
	C571.310120,369.892181 571.564697,372.209015 572.623108,374.316650 
	C575.772888,380.588806 583.125488,380.797180 587.016052,374.656128 
	C588.151001,372.864655 588.791626,370.733673 589.489624,368.700226 
	C590.011536,367.179749 590.565430,365.716919 592.460388,365.997101 
	C594.373291,366.279907 595.180359,367.709229 595.285522,369.580048 
	C595.507507,373.527771 593.750488,376.715118 591.222107,379.469971 
	C586.035583,385.121063 579.299377,387.047363 571.459717,387.047363 
z"/>
<path fill="#000000" opacity="1.000000" stroke="none" 
	d="
M445.085327,243.000015 
	C445.180267,233.196136 445.332397,223.892258 445.338379,214.588318 
	C445.340607,211.111771 446.509613,209.557449 450.306335,209.646820 
	C465.472290,210.003845 463.029114,207.725601 463.144470,222.106567 
	C463.277802,238.731094 463.067780,255.358795 463.263245,271.982117 
	C463.316986,276.553192 462.146973,278.577789 457.131134,278.402374 
	C443.680115,277.932007 445.163147,280.100586 445.114899,266.443390 
	C445.087891,258.795654 445.093536,251.147797 445.085327,243.000015 
z"/>
<path fill="#000000" opacity="1.000000" stroke="none" 
	d="
M311.413452,321.795166 
	C315.326782,321.856232 318.869110,321.080811 322.222504,322.548981 
	C325.133118,323.823242 327.351318,325.626282 327.292023,329.214600 
	C327.254761,331.467285 326.268707,333.168060 324.239075,333.926605 
	C321.216492,335.056244 318.767090,334.018921 316.808533,331.465240 
	C315.079651,329.211029 312.681366,328.253021 309.826813,328.233429 
	C307.005493,328.214050 304.402771,328.764893 302.892609,331.328674 
	C301.289337,334.050507 302.646423,336.494476 304.268555,338.697662 
	C308.709717,344.729645 315.312469,348.221863 321.023376,352.754303 
	C326.078766,356.766479 329.668152,361.332581 329.400452,368.295929 
	C329.170807,374.270325 326.808472,379.125824 322.014038,382.302734 
	C313.741577,387.784241 304.687256,388.840393 295.357422,385.104340 
	C291.319092,383.487183 288.331116,380.539795 287.123962,376.268829 
	C286.208588,373.030090 286.161530,369.705536 290.372437,368.690491 
	C294.176025,367.773590 296.904694,369.318878 298.035339,373.183685 
	C300.498718,381.604065 309.713226,384.333832 316.565582,378.645935 
	C319.950897,375.835846 320.475281,372.011139 317.946136,367.930725 
	C316.155548,365.041931 313.493530,363.021912 310.819061,361.017273 
	C306.559052,357.824219 302.084503,354.849396 298.556671,350.814453 
	C289.298096,340.225037 293.481812,326.569244 307.084290,322.757599 
	C308.364136,322.398956 309.672485,322.142151 311.413452,321.795166 
z"/>
<path fill="#000000" opacity="1.000000" stroke="none" 
	d="
M369.261902,386.371094 
	C350.433167,389.287048 342.731750,373.725403 344.489716,361.255585 
	C346.689423,345.652466 352.952576,332.662933 366.853058,324.218323 
	C371.016022,321.689331 375.611664,321.097565 380.344513,321.743042 
	C385.610107,322.461212 389.002136,326.849243 388.493439,331.911987 
	C388.170135,335.129364 386.353516,337.155853 383.397278,338.001373 
	C380.277466,338.893768 377.944672,337.575104 376.239258,334.856110 
	C372.071838,328.211792 368.315216,328.137024 363.579193,334.752594 
	C359.103943,341.003906 357.120911,348.201904 356.390137,355.752075 
	C356.134521,358.392700 356.122864,361.092499 356.343994,363.736511 
	C356.868286,370.005920 358.827484,375.564545 365.307495,378.074463 
	C371.241425,380.372833 379.925323,378.039062 384.114502,373.240021 
	C384.659912,372.615265 385.100433,371.900085 385.627197,371.257690 
	C387.074341,369.492859 387.758575,365.628601 390.867950,367.459259 
	C393.937775,369.266571 391.757874,372.300354 390.474670,374.470734 
	C385.829956,382.326538 378.399994,385.506775 369.261902,386.371094 
z"/>
</svg>